HIERARCHY
ROOT RootJoint
{
    OFFSET   0.000000   0.000000   0.000000
    CHANNELS 6 Xposition Yposition Zposition Xrotation Yrotation Zrotation
    JOINT pelvis_lowerback
    {
        OFFSET   0.000000   0.093605   0.000000
        CHANNELS 3 Xrotation Yrotation Zrotation
        JOINT lowerback_torso
        {
            OFFSET   0.000000   0.100000   0.000000
            CHANNELS 3 Xrotation Yrotation Zrotation
            JOINT torso_head
            {
                OFFSET   0.000000   0.282350   0.000000
                CHANNELS 3 Xrotation Yrotation Zrotation
                End Site
                {
                    OFFSET   0.000000   0.192650   0.000000
                }
            }
            JOINT rTorso_Clavicle
            {
                OFFSET  -0.001000   0.157500   0.000000
                CHANNELS 3 Xrotation Yrotation Zrotation
                JOINT rShoulder
                {
                    OFFSET  -0.117647   0.000000   0.000000
                    CHANNELS 3 Xrotation Yrotation Zrotation
                    JOINT rElbow
                    {
                        OFFSET  -0.245000   0.000000   0.000000
                        CHANNELS 3 Xrotation Yrotation Zrotation
                        JOINT rWrist
                        {
                            OFFSET  -0.240000   0.000000   0.000000
                            CHANNELS 3 Xrotation Yrotation Zrotation
                            End Site
                            {
                                OFFSET  -0.116353  -0.002500   0.000000
                            }
                        }
                    }
                }
            }
            JOINT lTorso_Clavicle
            {
                OFFSET   0.001000   0.157500   0.000000
                CHANNELS 3 Xrotation Yrotation Zrotation
                JOINT lShoulder
                {
                    OFFSET   0.117647   0.000000   0.000000
                    CHANNELS 3 Xrotation Yrotation Zrotation
                    JOINT lElbow
                    {
                        OFFSET   0.245000   0.000000   0.000000
                        CHANNELS 3 Xrotation Yrotation Zrotation
                        JOINT lWrist
                        {
                            OFFSET   0.240000   0.000000   0.000000
                            CHANNELS 3 Xrotation Yrotation Zrotation
                            End Site
                            {
                                OFFSET   0.116353  -0.002500   0.000000
                            }
                        }
                    }
                }
            }
        }
    }
    JOINT rHip
    {
        OFFSET  -0.100000  -0.051395   0.000000
        CHANNELS 3 Xrotation Yrotation Zrotation
        JOINT rKnee
        {
            OFFSET   0.000000  -0.410000   0.000000
            CHANNELS 3 Xrotation Yrotation Zrotation
            JOINT rAnkle
            {
                OFFSET   0.000000  -0.390000   0.000000
                CHANNELS 3 Xrotation Yrotation Zrotation
                JOINT rToeJoint
                {
                    OFFSET   0.000000  -0.050000   0.130000
                    CHANNELS 3 Xrotation Yrotation Zrotation
                    End Site
                    {
                        OFFSET  -0.010000   0.002000   0.060000
                    }
                }
            }
        }
    }
    JOINT lHip
    {
        OFFSET   0.100000  -0.051395   0.000000
        CHANNELS 3 Xrotation Yrotation Zrotation
        JOINT lKnee
        {
            OFFSET   0.000000  -0.410000   0.000000
            CHANNELS 3 Xrotation Yrotation Zrotation
            JOINT lAnkle
            {
                OFFSET   0.000000  -0.390000   0.000000
                CHANNELS 3 Xrotation Yrotation Zrotation
                JOINT lToeJoint
                {
                    OFFSET   0.000000  -0.050000   0.130000
                    CHANNELS 3 Xrotation Yrotation Zrotation
                    End Site
                    {
                        OFFSET   0.010000   0.002000   0.060000
                    }
                }
            }
        }
    }
}
MOTION
Frames: 5
Frame Time:   0.008333
 -2.350828   1.121115   3.991884   8.615427   8.444750  -1.357112  -1.675019   2.583048  -1.618775   6.293669  -1.596602   0.203012  -1.324088   0.440151  -3.227272   6.063164  -0.977328   3.187028  15.770826   9.341102  49.779792  -0.003008  42.463861   0.005913   5.285412   0.260642  -5.163226   7.739168   2.782676  -4.269539  17.384279  -7.258639 -50.595314  -0.000070 -40.892250  -0.000422  -0.719675  -5.927676   4.246544 -19.966904  -2.313213  -4.103998  31.746087   0.000442  -0.000948  10.224984  -3.048298   8.709823   3.492581  -0.000358  -0.000684 -20.808335   0.259228   4.666554  23.488557   0.001133  -0.002019  14.091552   0.307068  -6.469060   0.542937  -0.000746   0.001413
 -2.350085   1.116836   3.989529   8.822608   8.729411  -1.255619  -1.281353   2.567907  -1.692082   6.240449  -1.579882   0.242920  -1.620756   0.470509  -3.298931   5.862604  -0.692081   3.452802  15.632315   9.333969  49.476673  -0.004830  41.795135   0.009492   5.268280   0.481871  -5.241678   7.476109   2.507322  -4.522022  17.153271  -7.421789 -50.256610   0.000018 -40.567463  -0.000797  -0.723484  -6.011605   4.296387 -20.324266  -2.398890  -4.163932  31.720047   0.000372  -0.000803   9.719712  -3.033019   8.541140   3.420587  -0.000355  -0.000748 -21.422857   0.289949   4.728416  23.921996   0.000331  -0.000195  12.991308   0.275917  -6.421183   0.796705  -0.000804   0.001688
 -2.349395   1.111888   3.986996   9.017995   8.985997  -1.155756  -0.838143   2.559470  -1.765240   6.220935  -1.558063   0.285636  -1.903410   0.501373  -3.367366   5.654023  -0.391818   3.705707  15.488004   9.332261  49.173871  -0.006288  41.151267   0.012377   5.240066   0.562545  -5.337067   7.203041   2.217277  -4.757094  16.917166  -7.586644 -49.922232   0.000012 -40.260613  -0.001252  -0.727691  -6.051605   4.367592 -20.721000  -2.477083  -4.214097  31.680788   0.000328  -0.000704   9.241005  -3.017426   8.383996   3.308789  -0.000359  -0.000899 -22.040214   0.315301   4.801900  24.367071  -0.000355   0.001201  11.961529   0.247399  -6.376217   0.995013  -0.000839   0.001763
 -2.348722   1.106267   3.984425   9.200678   9.223853  -1.052342  -0.379988   2.549567  -1.837249   6.234119  -1.537839   0.325609  -2.159612   0.530399  -3.431334   5.450869  -0.101545   3.940220  15.347088   9.335333  48.886646  -0.007318  40.550177   0.014326   5.211639   0.614183  -5.433184   6.937182   1.936043  -4.972727  16.689352  -7.746590 -49.604387  -0.000050 -39.976347  -0.001667  -0.730840  -6.090858   4.446439 -21.130145  -2.548223  -4.262832  31.626817   0.000309  -0.000642   8.793099  -3.001635   8.237643   3.201122  -0.000337  -0.000998 -22.629459   0.335686   4.877001  24.781445  -0.000876   0.002143  11.000448   0.220221  -6.334228   1.175664  -0.000873   0.001763
 -2.348052   1.099969   3.981883   9.372120   9.448794  -0.945849   0.078276   2.536081  -1.906551   6.271248  -1.521309   0.362943  -2.392733   0.557398  -3.491067   5.259294   0.170640   4.158665  15.214687   9.339410  48.617361  -0.007995  39.989180   0.015474   5.184459   0.659345  -5.525685   6.685358   1.670830  -5.172149  16.475283  -7.898165 -49.305504  -0.000136 -39.711719  -0.001999  -0.733173  -6.131166   4.525370 -21.540172  -2.612811  -4.310912  31.563675   0.000305  -0.000600   8.374384  -2.985889   8.101274   3.099871  -0.000302  -0.001051 -23.184971   0.352403   4.951751  25.164812  -0.001258   0.002751  10.103260   0.194280  -6.295081   1.340358  -0.000897   0.001718
